<?xml version="1.0" standalone="no"?>
<!DOCTYPE svg PUBLIC "-//W3C//DTD SVG 20010904//EN"
 "http://www.w3.org/TR/2001/REC-SVG-20010904/DTD/svg10.dtd">
<svg version="1.0" xmlns="http://www.w3.org/2000/svg"
 width="200.000000pt" height="200.000000pt" viewBox="0 0 200.000000 200.000000"
 preserveAspectRatio="xMidYMid meet">
<metadata>
Created by potrace 1.11, written by Peter Selinger 2001-2013
</metadata>
<g transform="translate(0.000000,200.000000) scale(0.100000,-0.100000)"
fill="#000000" stroke="none">
<path d="M830 1819 c-60 -140 -14 -310 123 -460 60 -66 142 -192 146 -224 1
-5 4 -25 7 -43 9 -46 -19 -111 -62 -143 l-34 -27 88 -89 c98 -97 124 -138 141
-225 12 -54 6 -129 -14 -180 -12 -30 0 -20 34 28 74 102 75 223 5 334 -17 27
-23 56 -27 130 -7 106 -33 202 -82 300 -36 72 -108 174 -153 217 -39 37 -86
115 -111 183 -25 69 -44 184 -36 222 10 43 0 34 -25 -23z"/>
<path d="M766 1618 c-8 -62 -6 -105 10 -282 8 -94 -9 -190 -50 -276 -17 -36
-32 -69 -35 -74 -8 -18 75 7 107 32 62 50 103 70 133 65 27 -4 28 -3 23 34
-10 71 -35 138 -101 271 -60 120 -66 139 -72 215 l-7 82 -8 -67z"/>
<path d="M895 1660 c24 -82 56 -129 180 -265 135 -148 212 -328 219 -516 2
-53 8 -85 18 -97 22 -24 57 -97 73 -150 9 -28 13 -83 12 -143 -1 -54 -1 -97
-1 -96 1 1 10 25 19 52 49 141 51 234 10 418 -71 315 -124 402 -402 657 -39
36 -85 88 -103 115 -19 30 -29 40 -25 25z"/>
<path d="M830 1477 c0 -12 40 -90 55 -107 32 -37 86 -156 97 -215 12 -64 13
-65 45 -65 38 0 38 -2 18 74 -17 63 -37 97 -99 164 -22 24 -57 69 -78 100 -21
31 -38 53 -38 49z"/>
<path d="M404 1441 c-54 -25 -109 -74 -140 -126 -34 -58 -38 -78 -38 -165 0
-85 26 -148 84 -207 43 -44 56 -42 27 5 -13 20 -24 39 -24 42 -1 3 -6 24 -12
48 -37 134 21 302 133 391 44 35 31 40 -30 12z"/>
<path d="M1630 1453 c0 -5 13 -20 29 -36 32 -32 79 -120 89 -169 11 -52 6
-170 -8 -203 -8 -16 -14 -33 -14 -37 -1 -4 -18 -32 -39 -63 l-37 -56 29 15
c45 24 108 102 132 165 40 108 6 246 -81 325 -41 37 -100 72 -100 59z"/>
<path d="M177 1260 c-39 -46 -70 -136 -73 -213 -4 -95 15 -157 82 -263 l18
-29 -34 30 c-54 48 -60 56 -107 165 -10 23 -11 21 -8 -17 10 -143 56 -246 152
-342 65 -64 169 -132 223 -146 l25 -6 -2 93 c-1 71 3 106 18 148 10 30 19 57
19 60 0 4 -21 16 -47 28 -154 70 -251 220 -251 386 0 43 4 91 8 107 11 36 8
36 -23 -1z"/>
<path d="M1861 1190 c-4 -201 -113 -352 -301 -417 -42 -14 -64 -26 -61 -35 12
-37 8 -209 -5 -248 -8 -24 -13 -44 -11 -46 8 -9 146 40 207 73 140 75 238 210
264 363 l6 35 -26 -45 c-31 -55 -77 -104 -122 -131 l-34 -20 42 48 c24 26 57
77 74 113 27 58 31 75 31 155 0 81 -3 97 -32 155 l-31 65 -1 -65z"/>
<path d="M890 1045 c-10 -5 -36 -25 -60 -42 -24 -18 -52 -33 -62 -33 -12 0
-16 -4 -12 -11 4 -7 24 -9 50 -6 43 4 44 4 41 -22 -6 -38 10 -66 85 -159 82
-101 97 -128 105 -192 9 -79 -31 -120 -88 -90 -22 12 -26 -2 -5 -19 24 -20 59
-21 86 -4 81 53 75 134 -21 284 -90 141 -90 213 -1 270 30 19 40 30 31 34 -22
8 -131 1 -149 -10z"/>
<path d="M652 944 c-12 -8 -29 -29 -38 -45 -15 -29 -15 -30 5 -20 11 6 29 11
40 11 12 0 30 9 41 20 12 12 25 18 30 15 6 -4 10 -2 10 4 0 12 -32 31 -52 31
-8 0 -24 -7 -36 -16z"/>
<path d="M748 893 c12 -10 22 -25 23 -33 3 -28 -1 -41 -11 -35 -6 4 -8 11 -4
16 3 5 2 8 -3 7 -4 -1 -21 5 -38 14 -58 30 -134 -2 -176 -75 -9 -16 -8 -17 8
-10 16 8 32 9 76 4 6 -1 -6 -10 -29 -20 -25 -11 -50 -33 -64 -56 -24 -39 -39
-134 -30 -195 l5 -35 14 33 c12 28 71 103 71 89 0 -2 -7 -22 -16 -43 -20 -48
-22 -150 -4 -195 35 -87 114 -154 224 -189 71 -23 97 -21 49 3 -64 34 -110 98
-119 169 -4 38 2 35 23 -9 24 -53 109 -134 168 -163 72 -34 200 -35 268 -1
125 61 201 189 196 329 -3 88 -13 106 -27 49 -21 -83 -98 -197 -157 -233 -45
-27 -106 -44 -140 -38 -39 7 -58 25 -24 22 125 -10 203 197 139 367 -18 46
-41 77 -102 139 -43 44 -78 86 -78 94 0 9 -3 13 -6 9 -7 -7 14 -74 24 -79 11
-5 69 -99 86 -139 54 -130 -31 -294 -134 -257 -30 11 -90 67 -90 84 0 21 -17
25 -46 9 -57 -29 -118 -14 -148 37 -23 38 -23 91 -1 126 21 33 67 72 77 65 5
-2 8 2 8 10 0 8 -9 17 -21 20 -15 4 -22 -1 -29 -19 -13 -32 -17 -30 -12 4 3
21 10 28 27 30 13 1 27 -3 30 -8 10 -16 41 -12 58 8 18 19 22 59 9 78 -11 17
-48 34 -72 34 l-22 0 20 -17z m252 -593 c0 -5 -2 -10 -4 -10 -3 0 -8 5 -11 10
-3 6 -1 10 4 10 6 0 11 -4 11 -10z"/>
<path d="M774 752 c-58 -42 -71 -57 -82 -97 -18 -63 17 -114 79 -119 48 -4 71
7 83 39 4 11 4 16 0 13 -8 -9 -44 9 -44 22 0 18 40 50 61 50 17 0 20 -5 17
-25 -6 -29 2 -31 43 -9 23 11 30 21 26 35 -3 10 -1 17 4 13 5 -3 9 -1 9 4 0 5
-16 17 -35 26 -19 9 -39 25 -45 36 -5 10 -23 25 -39 33 -27 13 -31 12 -77 -21z"/>
<path d="M70 673 c1 -4 12 -26 25 -48 14 -22 32 -53 40 -68 61 -108 221 -240
371 -307 64 -29 66 -29 50 -8 -26 37 -56 96 -56 111 0 8 -29 26 -64 41 -101
43 -207 119 -290 207 -42 44 -76 77 -76 72z"/>
<path d="M1859 597 c-73 -66 -96 -82 -174 -123 -82 -42 -195 -84 -227 -84 -9
0 -25 -14 -33 -31 -9 -16 -32 -48 -51 -69 l-35 -38 59 13 c173 41 355 160 468
306 50 65 48 75 -7 26z"/>
</g>
</svg>
